<svg xmlns="http://www.w3.org/2000/svg" xmlns:xlink="http://www.w3.org/1999/xlink"><symbol id="fb" viewBox="0 0 256 512"><path d="M160 176v-64c0-17.664 14.336-32 32-32h32V0h-64c-53.024 0-96 42.976-96 96v80H0v80h64v256h96V256h64l32-80z"/></symbol><symbol id="insta" viewBox="0 0 512.001 512.001"><path d="M373.406 0H138.594C62.172 0 0 62.172 0 138.594V373.41C0 449.828 62.172 512 138.594 512H373.41C449.828 512 512 449.828 512 373.41V138.594C512 62.172 449.828 0 373.406 0zm108.578 373.41c0 59.867-48.707 108.574-108.578 108.574H138.594c-59.871 0-108.578-48.707-108.578-108.574V138.594c0-59.871 48.707-108.578 108.578-108.578H373.41c59.867 0 108.574 48.707 108.574 108.578zm0 0"/><path d="M256 116.004c-77.195 0-139.996 62.8-139.996 139.996S178.804 395.996 256 395.996 395.996 333.196 395.996 256 333.196 116.004 256 116.004zm0 249.976c-60.64 0-109.98-49.335-109.98-109.98 0-60.64 49.34-109.98 109.98-109.98 60.645 0 109.98 49.34 109.98 109.98 0 60.645-49.335 109.98-109.98 109.98zm0 0M399.344 66.285c-22.813 0-41.367 18.559-41.367 41.367 0 22.813 18.554 41.371 41.367 41.371s41.37-18.558 41.37-41.37-18.558-41.368-41.37-41.368zm0 52.719c-6.258 0-11.352-5.094-11.352-11.352 0-6.261 5.094-11.351 11.352-11.351 6.261 0 11.355 5.09 11.355 11.351 0 6.258-5.094 11.352-11.355 11.352zm0 0"/></symbol><symbol id="ok" viewBox="0 0 14.998 24"><path d="M.221 12.881c-.613 1.205.083 1.781 1.671 2.765 1.35.834 3.215 1.139 4.413 1.261l-4.721 4.541c-1.374 1.317.838 3.43 2.211 2.141l3.717-3.585c1.423 1.369 2.787 2.681 3.717 3.59 1.374 1.294 3.585-.801 2.226-2.141-.102-.097-5.037-4.831-4.736-4.541 1.213-.122 3.05-.445 4.384-1.261l-.001-.001c1.588-.989 2.284-1.564 1.68-2.769-.365-.684-1.349-1.256-2.659-.267 0 0-1.769 1.355-4.622 1.355-2.854 0-4.622-1.355-4.622-1.355-1.309-.994-2.297-.417-2.658.267z"/><path d="M7.499 12.142c3.478 0 6.318-2.718 6.318-6.064 0-3.36-2.84-6.078-6.318-6.078C4.02 0 1.18 2.718 1.18 6.078c0 3.346 2.84 6.064 6.319 6.064zm0-9.063c1.709 0 3.103 1.341 3.103 2.999 0 1.644-1.394 2.985-3.103 2.985-1.709 0-3.103-1.341-3.103-2.985-.001-1.659 1.393-2.999 3.103-2.999z"/></symbol><symbol id="vk" viewBox="0 0 548.359 312.863"><path d="M545.451 282.55c-.664-1.431-1.283-2.618-1.858-3.57-9.514-17.134-27.695-38.166-54.532-63.101l-.567-.571-.284-.28-.287-.287h-.288c-12.18-11.611-19.893-19.418-23.123-23.415-5.91-7.614-7.234-15.321-4.004-23.13 2.282-5.9 10.854-18.36 25.696-37.397 7.807-10.09 13.99-18.175 18.556-24.267 32.931-43.78 47.208-71.756 42.828-83.94l-1.701-2.846c-1.143-1.714-4.093-3.282-8.846-4.712-4.764-1.427-10.853-1.663-18.278-.712l-82.224.568c-1.332-.472-3.234-.428-5.712.144l-3.713.859-1.431.715-1.136.859c-.952.568-1.999 1.567-3.142 2.995-1.137 1.423-2.088 3.093-2.848 4.996-8.952 23.03-19.13 44.444-30.553 64.238-7.043 11.803-13.511 22.032-19.418 30.693-5.899 8.658-10.848 15.037-14.842 19.126-4 4.093-7.61 7.372-10.852 9.849-3.237 2.478-5.708 3.525-7.419 3.142-1.715-.383-3.33-.763-4.859-1.143-2.663-1.714-4.805-4.045-6.42-6.995-1.622-2.95-2.714-6.663-3.285-11.136-.568-4.476-.904-8.326-1-11.563-.089-3.233-.048-7.806.145-13.706.198-5.903.287-9.897.287-11.991 0-7.234.141-15.085.424-23.555.288-8.47.521-15.181.716-20.125.194-4.95.284-10.185.284-15.705s-.336-9.85-1-12.991a44.442 44.442 0 00-2.99-9.137c-1.335-2.95-3.289-5.232-5.853-6.852-2.569-1.618-5.763-2.902-9.564-3.856C292.269 1.468 279.422.233 263.811.04c-35.401-.38-58.148 1.906-68.236 6.855-3.997 2.09-7.614 4.948-10.848 8.562-3.427 4.189-3.905 6.475-1.431 6.85 11.422 1.712 19.508 5.805 24.267 12.276l1.715 3.429c1.334 2.474 2.666 6.854 3.999 13.134 1.331 6.28 2.19 13.227 2.568 20.837.95 13.897.95 25.793 0 35.689-.953 9.9-1.853 17.607-2.712 23.127-.859 5.52-2.143 9.993-3.855 13.418-1.715 3.426-2.856 5.52-3.428 6.28-.571.76-1.047 1.239-1.425 1.427a21.387 21.387 0 01-7.71 1.43c-2.667 0-5.901-1.333-9.707-4-3.805-2.665-7.754-6.327-11.847-10.991-4.093-4.665-8.709-11.184-13.85-19.558-5.137-8.374-10.467-18.271-15.987-29.691l-4.567-8.282c-2.855-5.328-6.755-13.086-11.704-23.267-4.952-10.185-9.329-20.037-13.134-29.554-1.521-3.997-3.806-7.04-6.851-9.134l-1.429-.86c-.95-.76-2.475-1.566-4.567-2.426a30.301 30.301 0 00-6.567-1.854l-78.229.568c-7.994 0-13.418 1.81-16.274 5.428l-1.143 1.71C.288 22.399 0 23.92 0 26.015c0 2.095.571 4.665 1.714 7.708 11.42 26.84 23.839 52.725 37.257 77.659 13.418 24.934 25.078 45.019 34.973 60.237 9.897 15.229 19.985 29.602 30.264 43.112 10.279 13.515 17.083 22.176 20.412 25.98 3.333 3.813 5.951 6.663 7.854 8.566l7.139 6.85c4.568 4.57 11.276 10.042 20.127 16.417 8.853 6.379 18.654 12.659 29.408 18.85 10.756 6.18 23.269 11.225 37.546 15.126 14.275 3.905 28.169 5.472 41.684 4.716h32.834c6.659-.575 11.704-2.67 15.133-6.283l1.136-1.431c.764-1.136 1.479-2.901 2.139-5.276.668-2.38 1-5 1-7.851-.195-8.183.428-15.558 1.852-22.124 1.423-6.564 3.045-11.513 4.859-14.846 1.813-3.33 3.859-6.14 6.136-8.418 2.282-2.283 3.908-3.666 4.862-4.142.948-.48 1.705-.804 2.276-1 4.568-1.521 9.944-.047 16.136 4.43 6.187 4.473 11.99 9.996 17.418 16.56 5.425 6.57 11.943 13.94 19.555 22.124 7.617 8.186 14.277 14.27 19.985 18.274l5.708 3.426c3.812 2.286 8.761 4.38 14.853 6.283 6.081 1.902 11.409 2.378 15.984 1.427l73.087-1.14c7.229 0 12.854-1.197 16.844-3.572 3.998-2.38 6.373-5 7.139-7.851.764-2.854.805-6.092.145-9.712-.677-3.611-1.344-6.136-2.008-7.563z"/></symbol><symbol id="yt" viewBox="0 0 556.963 556.963"><path d="M336.604 53.152v122.449c0 10.575.826 18.341 2.484 23.311 2.692 7.674 8.807 11.5 18.335 11.5 10.355 0 21.028-6.408 32.008-19.266v17.093h28.287V53.152h-28.281v118.41c-6.218 8.923-12.117 13.366-17.717 13.366-3.728 0-5.906-2.271-6.524-6.836-.208-.41-.312-4.045-.312-10.875V53.152h-28.28zM271.958 210.412c14.296 0 25.276-5.282 32.944-15.845 5.802-7.663 8.703-19.896 8.703-36.677v-54.389c0-16.573-2.901-28.69-8.703-36.359-7.668-10.575-18.647-15.857-32.944-15.857-13.886 0-24.762 5.282-32.638 15.857-5.802 7.675-8.703 19.792-8.703 36.359v54.389c0 16.585 2.901 28.813 8.703 36.677 7.87 10.563 18.751 15.845 32.638 15.845zm-13.367-112.51c0-14.291 4.456-21.438 13.366-21.438 8.905 0 13.366 7.148 13.366 21.438v65.27c0 14.511-4.461 21.757-13.366 21.757-8.911 0-13.366-7.246-13.366-21.757v-65.27zM192.704 208.239v-84.224L230.311 0h-31.702l-21.132 81.745L155.402 0h-32.944c5.802 17.412 12.534 36.788 20.202 58.116 9.737 28.605 16.053 50.563 18.96 65.9v84.218h31.083v.005zM482.834 257.034c-9.223-8.28-19.841-13.146-31.854-14.608-38.127-4.137-95.625-6.218-172.492-6.218-76.873 0-134.267 2.075-172.186 6.218-12.228 1.457-22.895 6.328-32.014 14.608-9.119 8.305-15.128 18.55-18.029 30.777-5.392 24.039-8.079 60.288-8.079 108.783 0 49.314 2.693 85.569 8.079 108.783 2.692 12.215 8.647 22.472 17.87 30.765 9.217 8.293 19.835 13.054 31.854 14.303 38.122 4.345 95.619 6.518 172.499 6.518 76.873 0 134.371-2.173 172.492-6.518 12.014-1.249 22.583-6.01 31.701-14.303 9.113-8.293 15.123-18.55 18.03-30.765 5.386-24.04 8.078-60.301 8.078-108.783 0-49.315-2.692-85.57-8.078-108.783-2.699-12.227-8.654-22.472-17.871-30.777zm-303.185 62.161h-33.256v176.85h-31.078v-176.85H82.684v-29.211h96.972v29.211h-.007zm83.912 176.85h-27.663v-16.794c-11.188 12.638-21.756 18.966-31.702 18.966-9.535 0-15.539-3.837-18.029-11.499-1.659-4.976-2.485-12.527-2.485-22.693V342.5h27.663v113.141c0 6.628.104 10.257.312 10.875.624 4.345 2.797 6.518 6.53 6.518 5.594 0 11.5-4.345 17.718-13.054V342.5h27.662v153.545h-.006zm105.674-45.998c0 15.128-.931 25.483-2.797 31.077-3.525 11.39-10.876 17.093-22.069 17.093-9.944 0-19.578-5.703-28.904-17.093v14.921h-27.663V289.984h27.663v67.442c8.904-11.182 18.543-16.781 28.904-16.781 11.188 0 18.544 5.802 22.069 17.399 1.866 5.392 2.797 15.648 2.797 30.777v61.226zm105.05-25.485h-55.631v27.039c0 14.302 4.761 21.438 14.296 21.438 6.836 0 10.979-3.727 12.43-11.181.41-2.075.624-8.391.624-18.966h28.281v4.045c0 10.159-.208 16.157-.625 18.029-.624 5.601-2.797 11.182-6.523 16.781-7.46 10.974-18.647 16.476-33.568 16.476-14.296 0-25.49-5.282-33.568-15.857-6.01-7.662-9.015-19.67-9.015-36.047v-53.771c0-16.364 2.901-28.384 8.703-36.059 8.078-10.563 19.161-15.845 33.256-15.845 13.88 0 24.865 5.281 32.943 15.845 5.594 7.675 8.391 19.694 8.391 36.059v32.014h.006z"/><path d="M432.638 365.811c-9.326 0-13.983 7.051-13.983 21.139v14.303h27.974V386.95c-.007-14.083-4.664-21.139-13.991-21.139zM329.455 365.811c-4.768 0-9.431 2.283-13.984 6.849v93.544c4.554 4.565 9.217 6.836 13.984 6.836 8.078 0 12.124-6.934 12.124-20.82v-65.575c-.007-13.888-4.046-20.834-12.124-20.834z"/></symbol></svg>