<?xml version="1.0" encoding="UTF-8" standalone="no"?>
<svg
   enable-background="new 0 0 24 24"
   height="512.00183"
   viewBox="0 0 14.997864 24.000086"
   width="319.95444"
   version="1.1">
  <g
     id="g3880"
     transform="translate(-4.5000236)">
    <path
       id="path3867"
       d="m 4.721,12.881 c -0.613,1.205 0.083,1.781 1.671,2.765 1.35,0.834 3.215,1.139 4.413,1.261 -0.491,0.472 1.759,-1.692 -4.721,4.541 -1.374,1.317 0.838,3.43 2.211,2.141 l 3.717,-3.585 c 1.423,1.369 2.787,2.681 3.717,3.59 1.374,1.294 3.585,-0.801 2.226,-2.141 -0.102,-0.097 -5.037,-4.831 -4.736,-4.541 1.213,-0.122 3.05,-0.445 4.384,-1.261 L 17.602,15.65 c 1.588,-0.989 2.284,-1.564 1.68,-2.769 -0.365,-0.684 -1.349,-1.256 -2.659,-0.267 0,0 -1.769,1.355 -4.622,1.355 -2.854,0 -4.622,-1.355 -4.622,-1.355 C 6.07,11.62 5.082,12.197 4.721,12.881 Z"
       />
    <path
       id="path3869"
       d="m 11.999,12.142 c 3.478,0 6.318,-2.718 6.318,-6.064 C 18.317,2.718 15.477,0 11.999,0 8.52,0 5.68,2.718 5.68,6.078 c 0,3.346 2.84,6.064 6.319,6.064 z m 0,-9.063 c 1.709,0 3.103,1.341 3.103,2.999 0,1.644 -1.394,2.985 -3.103,2.985 C 10.29,9.063 8.896,7.722 8.896,6.078 8.895,4.419 10.289,3.079 11.999,3.079 Z"
        />
  </g>
</svg>
